<svg xmlns="http://www.w3.org/2000/svg" viewBox="0 0 1094.65 913.13"><defs><style>.cls-1{fill:#fff;}.cls-2,.cls-6{fill:#1f9dea;}.cls-3,.cls-4{fill:#243064;}.cls-4{font-size:230px;font-family:TwCenMT-Regular, Tw Cen MT;}.cls-5{letter-spacing:-0.01em;}.cls-6{letter-spacing:-0.02em;}</style></defs><title>logo</title><g id="Livello_2" data-name="Livello 2"><g id="Livello_3" data-name="Livello 3"><ellipse class="cls-1" cx="546.23" cy="721.54" rx="165.48" ry="162.52"/></g><g id="Livello_2-2" data-name="Livello 2"><path class="cls-1" d="M579,760.33v-.78c-6.19,5.6-14.75,11.06-24.63,11.06H537.75c-9.7,0-18.13-5.27-24.3-10.77v.49a16.08,16.08,0,0,1-4.5,11.13l37.48,39.85,38.3-38.7A16.12,16.12,0,0,1,579,760.33Z"/><polygon class="cls-1" points="651.71 825.1 440.76 825.1 440.76 837.03 651.71 837.03 651.71 825.1 651.71 825.1"/><path class="cls-1" d="M645.77,796.78H566.41L554.6,808.7h96.76a24.91,24.91,0,0,0-5.59-11.92Z"/><path class="cls-1" d="M527.31,796.78H446.69a24.8,24.8,0,0,0-5.58,11.92h97.42l-11.22-11.92Z"/><polygon class="cls-1" points="651.71 850.61 440.76 850.61 440.76 862.54 651.71 862.54 651.71 850.61 651.71 850.61"/><path class="cls-2" d="M651.71,837h-211V825.1h211V837Zm0,25.51h-211V850.61h211v11.93Zm-205-65.76h80.62l11.22,11.92H441.11a24.8,24.8,0,0,1,5.58-11.92Zm66.76-36.45v-.49c6.17,5.5,14.6,10.77,24.3,10.77h16.63c9.88,0,18.44-5.46,24.63-11.06v.78a16.12,16.12,0,0,0,5.72,12.28l-38.3,38.7L509,771.46a16.08,16.08,0,0,0,4.5-11.13Zm-4.08-17.08-.23-.35-.29-.3a15.32,15.32,0,0,1-4.53-10.92v-11c9.57,1.12,33.78,2.23,42.08-13.84,8.11,15.71,31.42,15,41.41,13.91v10.94a15.33,15.33,0,0,1-4.53,10.92l-.29.3-.23.35c-.13.19-12.84,19.4-28.38,19.4H537.75c-15.54,0-28.25-19.21-28.38-19.4Zm28.63-42S534.19,707,524.58,707s-10.93-9.11-10.93-9.11L538,701.28Zm43.12-3.39S579.79,707,570.19,707s-13.42-5.72-13.42-5.72l24.35-3.39Zm-76.8-14.75c0-42,37.28-43.23,41.54-43.23h.42c4.25,0,41.53,1.21,41.53,43.23v2.44l-24.73,5a83.69,83.69,0,0,1-33.37,0l-25.39-5.16v-2.3Zm147,125.56H554.6l11.81-11.92h79.36a24.91,24.91,0,0,1,5.59,11.92Zm-17.89-24.36-41-12a12.7,12.7,0,0,1-9.48-12v-4.7a66.73,66.73,0,0,0,6.2-7.7,23.22,23.22,0,0,0,6.57-16.25V683.14c0-26-12.82-38.55-23.56-44.45A57.51,57.51,0,0,0,546.28,632h-.42c-18.38,0-49.49,10.78-49.49,51.18v48.54a23.22,23.22,0,0,0,6.57,16.25,65.71,65.71,0,0,0,6.54,8.05v4.35a12.7,12.7,0,0,1-9.48,12l-41,12c-13.28,3.87-22.21,15.32-22.21,28.48v63h218.9v-63c0-13.16-8.92-24.61-22.21-28.48Z"/><path class="cls-1" d="M504.32,683.14v2.3l25.39,5.16a83.69,83.69,0,0,0,33.37,0l24.73-5v-2.44c0-42-37.28-43.23-41.53-43.23h-.42c-4.26,0-41.54,1.21-41.54,43.23Z"/><path class="cls-1" d="M537.75,762.65h16.63c15.54,0,28.25-19.21,28.38-19.4l.23-.35.29-.3a15.33,15.33,0,0,0,4.53-10.92V720.74c-10,1.09-33.3,1.8-41.41-13.91-8.3,16.07-32.51,15-42.08,13.84v11a15.32,15.32,0,0,0,4.53,10.92l.29.3.23.35c.13.19,12.84,19.4,28.38,19.4Z"/><path class="cls-1" d="M524.58,707c9.61,0,13.42-5.72,13.42-5.72l-24.35-3.39S515,707,524.58,707Z"/><path class="cls-1" d="M570.19,707c9.6,0,10.93-9.11,10.93-9.11l-24.35,3.39s3.81,5.72,13.42,5.72Z"/></g><g id="Livello_1-2" data-name="Livello 1"><path class="cls-3" d="M931.19,545c-3.18,9.56-11.58,11.76-19.09,13.7-26.88,7-54.31,7.88-81.84,5.17a283.25,283.25,0,0,1-33.33-5c-6.7-1.49-13-5-19.32-7.84-1.45-.65-2.52-2.4-3.43-3.86a4.22,4.22,0,0,1-.34-3.05,23.29,23.29,0,0,1,2.19-4.14c8.24,2.08,16.18,4.85,24.35,5.92,8,1,15.46,6.24,24.3,2.34-6.22-1.76-12.37-3.78-18.66-5.25-18.1-4.22-36.31-8-54.39-12.36C715.79,522,680,513.23,644.21,504.5a12.47,12.47,0,0,0-10,1.28,114.28,114.28,0,0,1-36.68,13.16V496.46c-4.11-1.89-6.2-1.17-6.24,2.17-.14,11.64-.06,23.27-.06,35.58,59.22,16.1,103.12,50.77,129.36,106.27,18.33,38.78,23,79.64,13.64,121.42C713.29,855.41,631.61,916,540.46,913c-88.23-2.93-162.27-63.31-182-152.68-7.17-32.52-5.23-65.21,5-96.94A192.07,192.07,0,0,1,416,580.55c24.45-22.73,53.19-37.39,85.48-46.07V521.39c-2.52-.81-5.72-2-9-2.85-11.94-3.07-23.51-7-34.35-13.07a10.42,10.42,0,0,0-6.89-.72c-27,6.44-53.82,13.31-80.81,19.62-21.52,5-43.22,9.33-64.78,14.2-11.95,2.7-23.79,5.88-35.66,8.93-.48.12-.75,1.06-1.5,2.2,8.87,2.43,16.3-2.84,24.28-3.85s15.65-3.74,23.48-5.72c4.16,5.73,4.45,7.87-.72,10.76a76.32,76.32,0,0,1-19.31,8c-27.31,6.44-55,7.49-82.95,4.94-10.56-1-21-2-31.19-4.9-8-2.31-16.41-4.43-20.06-13.39,1.75-6.87,6.87-9.72,12.54-11.86,13.61-5.16,27.88-7.27,42.27-8.09a296.85,296.85,0,0,1,36-.18c14,.89,27.2-1.34,40.61-4.81,48.19-12.46,95.53-27.9,143.67-40.53.63-.16,1.16-.77,2.56-1.75V456.25c-8.66-2.35-17.7-5-26.85-7.23-23.57-5.68-47.17-11.18-70.77-16.73q-51.33-12-102.66-24.05c-16.77-3.91-33.49-8.06-50.38-11.38-12.74-2.5-25.73-3.69-38.56-5.76-16.63-2.68-33.33-5.16-49.79-8.68-9-1.92-17.57-5.78-20.3-16.65,3.26-10.23,12.71-13.39,21.49-16.34,22.14-7.45,45.23-10.07,68.45-11,13.77-.58,27.57-.29,41.36-.15,19.79.2,39.3,3.22,58.59,7.27,8.15,1.71,15.91,5.35,23.8,8.22a18.2,18.2,0,0,1,3.57,2.24c8.66,5.8,9.21,8.83,3,18.09-8.59-2.49-17.15-5.77-26-7.31-8.66-1.5-16.78-7.85-27.21-3.67,4.42,5.31,10.54,5,15.49,6.42,41.08,11.78,82.28,23.17,123.48,34.56,29,8,58.15,15.84,87.18,23.93a17.91,17.91,0,0,0,10.08.06,239.18,239.18,0,0,1,63.65-8.39c19.41.16,38.63,2.22,57.41,7.4a31.11,31.11,0,0,0,17.4,0c25-7.19,50-14.39,75-21.24,34.52-9.44,69.13-18.54,103.69-27.85,12.85-3.46,25.67-7.07,38.47-10.74,2-.56,3.76-1.78,7.58-3.64-3.84-1-6-2.23-7.92-1.87-5.85,1.12-11.59,2.82-17.35,4.35-9.45,2.51-18.88,5.06-28.43,7.62-6.91-7.45-6.92-11,1-16.55,10.3-7.18,22.38-9.88,34.41-12.39,29.85-6.24,60.11-7.95,90.47-6.38,14.69.76,29.32,3,43.91,5.12a247.05,247.05,0,0,1,24.43,5.25c2.61.65,5,2.32,7.42,3.65,3.29,1.81,6.38,4.08,9.81,5.57,8.66,3.76,10,11.31,2.09,16.71A67.94,67.94,0,0,1,988,384.05a208,208,0,0,1-41.07,7.13c-11.69,1-23.54-.08-35,2.25-11.19,2.28-22.07,6.09-33.2,8.75-42,10-84.14,19.8-126.19,29.8-27,6.42-53.93,13.09-80.9,19.64-6.08,1.48-12.17,2.93-18.47,4.44V478c3.38,1.3,7.1,3.06,11,4.18,33.41,9.55,66.86,18.94,100.28,28.46,16.18,4.61,32.3,9.47,48.5,14,2.64.74,5.56.62,8.35.63,18,.09,36.08-.34,54.1.29a137.12,137.12,0,0,1,43.33,8.12C924,535.65,928.74,538.47,931.19,545ZM546.79,867.22c78.93.86,145.71-63.74,146.07-145.31.36-82.94-68.31-147.08-147-146.73-77.34.34-145.55,63.76-145.53,146.05C400.37,802.44,466.48,868.13,546.79,867.22Z"/><path class="cls-2" d="M341.08,382.2c4.06-6,7.72-11,11-16.25,3.86-6.21,2.24-12.3-1.78-17.66a57.18,57.18,0,0,0-18.66-16.45,203.1,203.1,0,0,0-54.78-19.55c-13.26-2.78-26.78-4.33-40.14-6.63A273.88,273.88,0,0,0,174.82,302c-27.5,1.54-54.78,4.63-81.62,11.7-15.27,4-30.19,8.57-44.09,15.9-8.6,4.54-16.82,9.77-22,18.81-5,8.72-4.81,18.65,1.91,26a58.29,58.29,0,0,0,9.23,8.69c3.34,2.33,7.35,3.71,12.21,6.07-3.79,2.15-6.25,1.61-9.18.06-12.67-6.7-24.79-13.76-35.17-24.17-8.56-8.58-7.33-27-1.19-34.85,9.49-12.17,22-20.28,35.61-26.33,15.85-7,32.23-13.1,49.35-16.58,10.23-2.07,20.5-4.09,30.85-5.41,30.38-3.9,61-6,91.52-4,20.47,1.35,40.92,3.32,61.23,7.08a290,290,0,0,1,51.18,13.88c14.32,5.48,28.15,12.07,39.87,22.56,17.54,15.69,14.61,35.74-1.57,49.87a97.22,97.22,0,0,1-14.63,10.09C346.58,382.42,343.92,381.93,341.08,382.2Z"/><path class="cls-2" d="M1042.59,390.59c7.37-5.19,13.17-8.91,18.56-13.16,11.73-9.24,10.93-22.58,1.29-34.13-3.08-3.68-7.29-6.57-11.38-9.2-5.24-3.36-11-5.89-16.28-9.2-1.78-1.12-11.74-8-35.53-12.48-14.77-2.77-29.08-5.55-43.74-7.14-19.57-2.13-39.08-4.21-58.71-3.31-34.19,1.55-68,5.41-100.91,15.87-16,5.11-31.41,11.09-44.86,21.6-17.71,13.83-12.8,26.22-3.46,36.37,1.41,1.54,2.86,3,5.45,5.77-3.33.15-6,1.13-7.47.2-8.72-5.57-17.14-11.49-23.38-20.11-7.43-10.26-7.53-24.95,1.51-34.76,5.19-5.63,11-11.24,17.54-15,17.9-10.13,36.75-18.17,57.19-22.06,11.56-2.19,22.9-5.56,34.45-7.81,6.83-1.33,13.89-1.47,20.84-2.24a433,433,0,0,1,80.15-1.77c32.87,2.47,65.51,6.7,97.19,17.62a202.07,202.07,0,0,1,48.77,24.7c8.66,5.94,13.6,15.22,14.75,25.41.56,4.94-1.66,11.13-4.62,15.36-10.08,14.4-25.3,22.22-40.81,29.34C1047.73,391.15,1045.78,390.59,1042.59,390.59Z"/><path class="cls-2" d="M333.36,504.21c-11.25,2.7-20.58,5.08-30,7.07-1.8.37-4-.65-5.89-1.32-10.57-3.7-21.33-6.52-32.61-6.63-14.48-.14-29-.6-43.43-.09-23.49.82-46.05,6.49-67.9,14.91-8.69,3.34-17.42,6.59-24.09,13.87-8,8.68-8.29,12.92-.22,21.21,1.48,1.52,2.71,3.27,3.62,4.37-8.26-.67-21.16-10.23-23.95-18.44-2-5.91-.09-10.8,3.77-15.43,7.58-9.09,17.51-14.61,28.08-19.33a199.29,199.29,0,0,1,61.11-16.1c15.42-1.56,31.19-5,47-1.23,4.36,1,9.15.27,13.74.32,22.94.21,44.74,5.64,65.79,14.45C329.52,502.3,330.59,502.88,333.36,504.21Z"/><path class="cls-2" d="M958,559c2.86-2.77,4.65-4.44,6.37-6.19,7.31-7.44,7.41-14.8-.62-21.54a65.45,65.45,0,0,0-15.9-9.95A239.35,239.35,0,0,0,892,505.25c-23.84-4-47.81-2.32-71.68-1.43-9.16.34-18.16,4.29-27.28,6.4a16,16,0,0,1-6.77.26c-8.16-1.74-16.24-3.81-25.75-6.09a75.59,75.59,0,0,1,23.2-9.86c16.92-4.07,34-7.7,51.66-7.35,6.59.13,13.3-1.92,19.79-1.28,17,1.68,34,1.18,51,4.94,15.65,3.49,31,7.36,45.81,13.48,10.73,4.44,20.61,10,28.24,19,6.6,7.8,6.78,15.12-.08,22.4C974.38,551.84,967.78,556.75,958,559Z"/><path class="cls-2" d="M774.28,564.57c-10.14-3.92-20.74-7.25-29.09-14.8-5.08-4.6-10.57-9.14-10.7-17.83l16.94,3C748.77,552.33,762.89,557.06,774.28,564.57Z"/><path class="cls-2" d="M321.83,563.35c1-1,1.74-2.46,2.91-3,11-4.75,17.36-13.22,19.65-24.93l12.31-3.28c1.8,5,.1,8.7-3.21,12.37-8.69,9.61-19.63,15.14-31.84,18.61Z"/><path class="cls-3" d="M321.65,563.16,319,565l-.46-.73,3.25-.88Z"/><polygon class="cls-3" points="778.87 566.84 778.66 566.27 779.21 566.35 778.87 566.84"/></g><g id="Livello_4" data-name="Livello 4"><text class="cls-4" transform="translate(208.96 186.53)"><tspan class="cls-5">F</tspan><tspan x="98.49" y="0">air</tspan><tspan class="cls-2" x="352.41" y="0">E</tspan><tspan class="cls-6" x="453.15" y="0">y</tspan><tspan class="cls-2" x="563.54" y="0">e</tspan></text></g></g></svg>