<svg xmlns="http://www.w3.org/2000/svg" viewBox="0 0 655.75 186.54"><defs><style>.cls-1{fill:#243064;}.cls-2{fill:#1f9dea;}</style></defs><title>logoT</title><g id="Livello_2" data-name="Livello 2"><g id="Livello_4" data-name="Livello 4"><path class="cls-1" d="M0,0H79.29V19.54h-60V55.25h60V74.57H19.54v68.51H0Z"/><path class="cls-1" d="M176.21,50.42h19.54v92.66H176.21V124.66q-14.27,21-35.38,21-18.3,0-31.28-14.38t-13-34.92a49.16,49.16,0,0,1,13.09-34q13.08-14.55,30.71-14.55A39.14,39.14,0,0,1,161,53.79a42.42,42.42,0,0,1,15.17,15.5ZM178.9,97a29.53,29.53,0,0,0-9.11-21.73,30.67,30.67,0,0,0-43.43-.06q-9.23,9-9.23,21.12a30.79,30.79,0,0,0,9,22.35,30.53,30.53,0,0,0,43.66.05A29.76,29.76,0,0,0,178.9,97Z"/><path class="cls-1" d="M221.46,20A14.26,14.26,0,0,1,226,9.49a14.65,14.65,0,0,1,10.67-4.44,14.35,14.35,0,0,1,10.5,4.44A14.38,14.38,0,0,1,251.56,20a14.32,14.32,0,0,1-4.43,10.56,14.45,14.45,0,0,1-10.5,4.38A14.75,14.75,0,0,1,226,30.55,14.2,14.2,0,0,1,221.46,20ZM227,50.42h19.31v92.66H227Z"/><path class="cls-1" d="M297.27,50.42v19.1Q303.78,58.06,310,53t16.23-5.11a35.49,35.49,0,0,1,8.08,1.35l-5.95,19.54A48.58,48.58,0,0,0,321,67.61a22.15,22.15,0,0,0-16.57,6.9,23.85,23.85,0,0,0-6.68,17.24v51.33H278.18V50.42Z"/><path class="cls-2" d="M352.41,0H431.7V19.54h-60V55.25h60V74.57h-60v49.19h60v19.32H352.41Z"/><path class="cls-2" d="M446.86,50.42H469l33.6,50.34,23.24-50.34H546L483.44,186.54H463l30.6-66.28Z"/><path class="cls-2" d="M655.75,100.51H576.69q2.58,14.26,11.73,20.84a33.47,33.47,0,0,0,19.93,6.57q16.62,0,27.86-13.82l14.26,10.78q-16.07,20.77-43,20.78-20.67,0-34.59-14.15T558.94,96.36q0-19.65,14.09-34.09a46.29,46.29,0,0,1,34.43-14.43q20,0,34.25,14.66T655.75,100.51Zm-77-15.61h56.6q-9.43-19.08-27.85-19.09Q587.34,65.81,578.71,84.9Z"/></g></g></svg>