<svg xmlns="http://www.w3.org/2000/svg" viewBox="0 0 1094.65 869.68"><defs><style>.cls-1{fill:#fff;}.cls-2{fill:#1f9dea;}.cls-3{fill:#243064;}</style></defs><title>logo</title><g id="Livello_2" data-name="Livello 2"><g id="Livello_3" data-name="Livello 3"><ellipse class="cls-1" cx="546.23" cy="678.09" rx="165.48" ry="162.52"/></g><g id="Livello_2-2" data-name="Livello 2"><path class="cls-1" d="M579,716.88v-.78c-6.19,5.6-14.75,11-24.63,11H537.75c-9.7,0-18.13-5.26-24.3-10.76v.49A16.08,16.08,0,0,1,509,728l37.48,39.85,38.3-38.7A16.12,16.12,0,0,1,579,716.88Z"/><polygon class="cls-1" points="651.71 781.65 440.76 781.65 440.76 793.58 651.71 793.58 651.71 781.65 651.71 781.65"/><path class="cls-1" d="M645.77,753.33H566.41L554.6,765.25h96.76a24.91,24.91,0,0,0-5.59-11.92Z"/><path class="cls-1" d="M527.31,753.33H446.69a24.8,24.8,0,0,0-5.58,11.92h97.42l-11.22-11.92Z"/><polygon class="cls-1" points="651.71 807.16 440.76 807.16 440.76 819.09 651.71 819.09 651.71 807.16 651.71 807.16"/><path class="cls-2" d="M651.71,793.58h-211V781.65h211v11.93Zm0,25.51h-211V807.16h211v11.93Zm-205-65.76h80.62l11.22,11.92H441.11a24.8,24.8,0,0,1,5.58-11.92Zm66.76-36.45v-.49c6.17,5.5,14.6,10.76,24.3,10.76h16.63c9.88,0,18.44-5.45,24.63-11v.78a16.12,16.12,0,0,0,5.72,12.28l-38.3,38.7L509,728a16.08,16.08,0,0,0,4.5-11.13Zm-4.08-17.08-.23-.35-.29-.3a15.35,15.35,0,0,1-4.53-10.92v-11c9.57,1.13,33.78,2.24,42.08-13.83,8.11,15.71,31.42,15,41.41,13.91v10.94a15.35,15.35,0,0,1-4.53,10.92l-.29.3-.23.35c-.13.19-12.84,19.4-28.38,19.4H537.75c-15.54,0-28.25-19.21-28.38-19.4Zm28.63-42s-3.81,5.72-13.42,5.72-10.93-9.11-10.93-9.11L538,657.83Zm43.12-3.39s-1.33,9.11-10.93,9.11-13.42-5.72-13.42-5.72l24.35-3.39Zm-76.8-14.75c0-42,37.28-43.23,41.54-43.23h.42c4.25,0,41.53,1.21,41.53,43.23v2.44l-24.73,5a83.69,83.69,0,0,1-33.37,0L504.32,642v-2.3Zm147,125.56H554.6l11.81-11.92h79.36a24.91,24.91,0,0,1,5.59,11.92Zm-17.89-24.36-41-12a12.7,12.7,0,0,1-9.48-12v-4.7a66.73,66.73,0,0,0,6.2-7.7,23.22,23.22,0,0,0,6.57-16.25V639.69c0-26-12.82-38.55-23.56-44.45a57.51,57.51,0,0,0-25.92-6.73h-.42c-18.38,0-49.49,10.78-49.49,51.18v48.54a23.22,23.22,0,0,0,6.57,16.25,65.71,65.71,0,0,0,6.54,8v4.35a12.7,12.7,0,0,1-9.48,12l-41,12c-13.28,3.87-22.21,15.32-22.21,28.48v63h218.9v-63c0-13.16-8.92-24.61-22.21-28.48Z"/><path class="cls-1" d="M504.32,639.69V642l25.39,5.16a83.69,83.69,0,0,0,33.37,0l24.73-5v-2.44c0-42-37.28-43.23-41.53-43.23h-.42c-4.26,0-41.54,1.21-41.54,43.23Z"/><path class="cls-1" d="M537.75,719.2h16.63c15.54,0,28.25-19.21,28.38-19.4l.23-.35.29-.3a15.35,15.35,0,0,0,4.53-10.92V677.29c-10,1.09-33.3,1.8-41.41-13.91-8.3,16.07-32.51,15-42.08,13.83v11a15.35,15.35,0,0,0,4.53,10.92l.29.3.23.35c.13.19,12.84,19.4,28.38,19.4Z"/><path class="cls-1" d="M524.58,663.55c9.61,0,13.42-5.72,13.42-5.72l-24.35-3.39s1.33,9.11,10.93,9.11Z"/><path class="cls-1" d="M570.19,663.55c9.6,0,10.93-9.11,10.93-9.11l-24.35,3.39s3.81,5.72,13.42,5.72Z"/></g><g id="Livello_1-2" data-name="Livello 1"><path class="cls-3" d="M931.19,501.5c-3.18,9.56-11.58,11.75-19.09,13.7-26.88,7-54.31,7.87-81.84,5.17a283.25,283.25,0,0,1-33.33-5c-6.7-1.49-13-5-19.32-7.84-1.45-.65-2.52-2.41-3.43-3.86a4.22,4.22,0,0,1-.34-3.05,23.29,23.29,0,0,1,2.19-4.14c8.24,2.08,16.18,4.85,24.35,5.92,8,1.05,15.46,6.24,24.3,2.34C818.46,503,812.31,501,806,499.48c-18.1-4.23-36.31-8-54.39-12.36-35.84-8.56-71.62-17.34-107.42-26.07a12.46,12.46,0,0,0-10,1.27,114.06,114.06,0,0,1-36.68,13.17V453c-4.11-1.88-6.2-1.16-6.24,2.18-.14,11.64-.06,23.27-.06,35.58,59.22,16.1,103.12,50.77,129.36,106.27,18.33,38.78,23,79.64,13.64,121.42C713.29,812,631.61,872.59,540.46,869.57c-88.23-2.92-162.27-63.3-182-152.67-7.17-32.52-5.23-65.21,5-96.94A192.07,192.07,0,0,1,416,537.1c24.45-22.73,53.19-37.39,85.48-46.07V477.94c-2.52-.81-5.72-2-9-2.85-11.94-3.07-23.51-7-34.35-13.07a10.35,10.35,0,0,0-6.89-.72c-27,6.44-53.82,13.31-80.81,19.62-21.52,5-43.22,9.33-64.78,14.2-11.95,2.7-23.79,5.88-35.66,8.93-.48.12-.75,1.06-1.5,2.2,8.87,2.43,16.3-2.84,24.28-3.85s15.65-3.74,23.48-5.72c4.16,5.73,4.45,7.87-.72,10.76a76.32,76.32,0,0,1-19.31,8c-27.31,6.44-55,7.49-82.95,4.94-10.56-1-21-2-31.19-4.91-8-2.3-16.41-4.42-20.06-13.38,1.75-6.87,6.87-9.72,12.54-11.86,13.61-5.16,27.88-7.27,42.27-8.09a296.85,296.85,0,0,1,36-.18c14,.89,27.2-1.34,40.61-4.81C341.7,464.67,389,449.22,437.18,436.6c.63-.17,1.16-.77,2.56-1.75V412.8c-8.66-2.35-17.7-5-26.85-7.23-23.57-5.68-47.17-11.18-70.77-16.73q-51.33-12-102.66-24.06c-16.77-3.9-33.49-8-50.38-11.37-12.74-2.5-25.73-3.69-38.56-5.76-16.63-2.68-33.33-5.16-49.79-8.68-9-1.92-17.57-5.78-20.3-16.65,3.26-10.24,12.71-13.39,21.49-16.35,22.14-7.44,45.23-10.06,68.45-11,13.77-.57,27.57-.28,41.36-.14,19.79.2,39.3,3.22,58.59,7.27,8.15,1.71,15.91,5.35,23.8,8.22a18.2,18.2,0,0,1,3.57,2.24c8.66,5.8,9.21,8.83,3,18.09-8.59-2.49-17.15-5.77-26-7.31-8.66-1.5-16.78-7.85-27.21-3.67,4.42,5.31,10.54,5,15.49,6.42,41.08,11.78,82.28,23.17,123.48,34.56,29,8,58.15,15.84,87.18,23.93a17.91,17.91,0,0,0,10.08.06,239.6,239.6,0,0,1,63.65-8.4c19.41.17,38.63,2.23,57.41,7.41a31.11,31.11,0,0,0,17.4,0c25-7.19,50-14.39,75-21.25,34.52-9.43,69.13-18.53,103.69-27.84,12.85-3.46,25.67-7.07,38.47-10.74,2-.56,3.76-1.78,7.58-3.64-3.84-1-6-2.23-7.92-1.87-5.85,1.11-11.59,2.82-17.35,4.35-9.45,2.51-18.88,5.06-28.43,7.62-6.91-7.45-6.92-11,1-16.55,10.3-7.18,22.38-9.88,34.41-12.4,29.85-6.23,60.11-7.95,90.47-6.37,14.69.76,29.32,3,43.91,5.12a247.05,247.05,0,0,1,24.43,5.25c2.61.64,5,2.32,7.42,3.65,3.29,1.81,6.38,4.08,9.81,5.57,8.66,3.75,10,11.31,2.09,16.71A67.94,67.94,0,0,1,988,340.6a208.77,208.77,0,0,1-41.07,7.13c-11.69,1-23.54-.08-35,2.25-11.19,2.28-22.07,6.09-33.2,8.75-42,10-84.14,19.8-126.19,29.8-27,6.42-53.93,13.09-80.9,19.64-6.08,1.48-12.17,2.93-18.47,4.44v21.9c3.38,1.3,7.1,3.06,11,4.18,33.41,9.54,66.86,18.94,100.28,28.45,16.18,4.61,32.3,9.47,48.5,14,2.64.74,5.56.62,8.35.63,18,.09,36.08-.34,54.1.29a137.12,137.12,0,0,1,43.33,8.12C924,492.2,928.74,495,931.19,501.5ZM546.79,823.77c78.93.86,145.71-63.74,146.07-145.31.36-82.94-68.31-147.08-147-146.73-77.34.33-145.55,63.76-145.53,146C400.37,759,466.48,824.68,546.79,823.77Z"/><path class="cls-2" d="M341.08,338.75c4.06-6,7.72-11,11-16.25,3.86-6.21,2.24-12.3-1.78-17.66a57.32,57.32,0,0,0-18.66-16.46,202.73,202.73,0,0,0-54.78-19.54c-13.26-2.78-26.78-4.34-40.14-6.63a273.88,273.88,0,0,0-61.89-3.64c-27.5,1.54-54.78,4.62-81.62,11.7-15.27,4-30.19,8.57-44.09,15.9-8.6,4.54-16.82,9.77-22,18.81-5,8.72-4.81,18.65,1.91,26a58.22,58.22,0,0,0,9.23,8.68c3.34,2.34,7.35,3.72,12.21,6.07-3.79,2.16-6.25,1.62-9.18.07C28.61,339.1,16.49,332,6.11,321.63c-8.56-8.58-7.33-27-1.19-34.85,9.49-12.17,22-20.28,35.61-26.33,15.85-7,32.23-13.1,49.35-16.58,10.23-2.08,20.5-4.09,30.85-5.41,30.38-3.9,61-6,91.52-4,20.47,1.35,40.92,3.32,61.23,7.08a290.86,290.86,0,0,1,51.18,13.87c14.32,5.49,28.15,12.08,39.87,22.57,17.54,15.69,14.61,35.74-1.57,49.87a97.22,97.22,0,0,1-14.63,10.09C346.58,339,343.92,338.48,341.08,338.75Z"/><path class="cls-2" d="M1042.59,347.14c7.37-5.19,13.17-8.91,18.56-13.16,11.73-9.24,10.93-22.58,1.29-34.13-3.08-3.68-7.29-6.57-11.38-9.2-5.24-3.36-11-5.89-16.28-9.2-1.78-1.13-11.74-8-35.53-12.48-14.77-2.77-29.08-5.55-43.74-7.14-19.57-2.13-39.08-4.21-58.71-3.32-34.19,1.55-68,5.42-100.91,15.88-16,5.11-31.41,11.09-44.86,21.6-17.71,13.82-12.8,26.21-3.46,36.37,1.41,1.53,2.86,3,5.45,5.77-3.33.15-6,1.13-7.47.2-8.72-5.57-17.14-11.49-23.38-20.11-7.43-10.26-7.53-25,1.51-34.76,5.19-5.63,11-11.24,17.54-15,17.9-10.13,36.75-18.17,57.19-22.06,11.56-2.19,22.9-5.56,34.45-7.81,6.83-1.34,13.89-1.47,20.84-2.24a433,433,0,0,1,80.15-1.77c32.87,2.47,65.51,6.7,97.19,17.62a201.71,201.71,0,0,1,48.77,24.7c8.66,5.94,13.6,15.22,14.75,25.4.56,4.94-1.66,11.14-4.62,15.37-10.08,14.4-25.3,22.22-40.81,29.34C1047.73,347.7,1045.78,347.14,1042.59,347.14Z"/><path class="cls-2" d="M333.36,460.76c-11.25,2.7-20.58,5.08-30,7.06-1.8.38-4-.64-5.89-1.31-10.57-3.7-21.33-6.52-32.61-6.63-14.48-.14-29-.6-43.43-.09-23.49.82-46.05,6.49-67.9,14.91-8.69,3.34-17.42,6.59-24.09,13.87-8,8.68-8.29,12.92-.22,21.21,1.48,1.51,2.71,3.27,3.62,4.37-8.26-.67-21.16-10.23-23.95-18.44-2-5.91-.09-10.8,3.77-15.43,7.58-9.09,17.51-14.61,28.08-19.33a199.29,199.29,0,0,1,61.11-16.1c15.42-1.57,31.19-5,47-1.24,4.36,1,9.15.28,13.74.33,22.94.2,44.74,5.64,65.79,14.44C329.52,458.85,330.59,459.43,333.36,460.76Z"/><path class="cls-2" d="M958,515.58c2.86-2.77,4.65-4.44,6.37-6.19,7.31-7.44,7.41-14.8-.62-21.54a65.45,65.45,0,0,0-15.9-10A239.35,239.35,0,0,0,892,461.8c-23.84-4-47.81-2.32-71.68-1.43-9.16.34-18.16,4.29-27.28,6.4a16.14,16.14,0,0,1-6.77.26c-8.16-1.74-16.24-3.81-25.75-6.09a75.59,75.59,0,0,1,23.2-9.86c16.92-4.07,34-7.7,51.66-7.35,6.59.13,13.3-1.92,19.79-1.28,17,1.68,34,1.18,51,4.94,15.65,3.48,31,7.36,45.81,13.48,10.73,4.44,20.61,10,28.24,19,6.6,7.8,6.78,15.11-.08,22.4C974.38,508.39,967.78,513.3,958,515.58Z"/><path class="cls-2" d="M774.28,521.12c-10.14-3.93-20.74-7.25-29.09-14.81-5.08-4.59-10.57-9.13-10.7-17.82l16.94,3C748.77,508.88,762.89,513.61,774.28,521.12Z"/><path class="cls-2" d="M321.83,519.9c1-1,1.74-2.46,2.91-3,11-4.74,17.36-13.21,19.65-24.92l12.31-3.28c1.8,5,.1,8.7-3.21,12.37-8.69,9.61-19.63,15.14-31.84,18.61Z"/><path class="cls-3" d="M321.65,519.71l-2.61,1.8-.46-.73,3.25-.88Z"/><polygon class="cls-3" points="778.87 523.39 778.66 522.82 779.21 522.9 778.87 523.39"/></g><g id="Livello_4" data-name="Livello 4"><path class="cls-3" d="M222.32,0h79.29V19.54h-60V55.25h60V74.57H241.86v68.51H222.32Z"/><path class="cls-3" d="M398.53,50.42h19.54v92.66H398.53V124.66q-14.26,21-35.38,21-18.3,0-31.28-14.38t-13-34.92a49.16,49.16,0,0,1,13.09-34q13.08-14.55,30.71-14.55a39.2,39.2,0,0,1,20.67,5.95,42.47,42.47,0,0,1,15.16,15.5ZM401.22,97a29.53,29.53,0,0,0-9.11-21.73,30.67,30.67,0,0,0-43.43-.06q-9.23,9-9.22,21.12a30.75,30.75,0,0,0,9,22.35,29.37,29.37,0,0,0,21.82,9.21A31.19,31.19,0,0,0,401.22,97Z"/><path class="cls-3" d="M443.79,20a14.25,14.25,0,0,1,4.49-10.5A14.65,14.65,0,0,1,459,5.05a14.35,14.35,0,0,1,10.5,4.44A14.38,14.38,0,0,1,473.88,20a14.32,14.32,0,0,1-4.43,10.56A14.45,14.45,0,0,1,459,34.93a14.75,14.75,0,0,1-10.67-4.38A14.19,14.19,0,0,1,443.79,20Zm5.5,30.43h19.32v92.66H449.29Z"/><path class="cls-3" d="M519.59,50.42v19.1Q526.1,58.06,532.34,53t16.23-5.11a35.49,35.49,0,0,1,8.08,1.35L550.7,68.73a48.23,48.23,0,0,0-7.41-1.12,22.15,22.15,0,0,0-16.57,6.9A23.85,23.85,0,0,0,520,91.75v51.33H500.5V50.42Z"/><path class="cls-2" d="M574.73,0H654V19.54h-60V55.25h60V74.57h-60v49.19h60v19.32H574.73Z"/><path class="cls-2" d="M669.18,50.42h22.17L725,100.76l23.23-50.34h20.16L705.76,186.54H685.35L716,120.26Z"/><path class="cls-2" d="M878.07,100.51H799q2.58,14.26,11.73,20.84a33.48,33.48,0,0,0,19.94,6.57q16.62,0,27.85-13.82l14.26,10.78q-16.06,20.77-43,20.78-20.67,0-34.59-14.15T781.26,96.36q0-19.65,14.1-34.09a46.27,46.27,0,0,1,34.42-14.43q20,0,34.25,14.66T878.07,100.51ZM801,84.9h56.6q-9.43-19.08-27.85-19.09Q809.67,65.81,801,84.9Z"/></g></g></svg>